PathFileType	4	(X/Y/Z)	S01_0013_Gait_markers.trc
DataRate	CameraRate	NumFrames	NumMarkers	Units	OrigDataRate	OrigDataStartFrame	OrigNumFrames
250.000000	250.000000	4	54	mm	250.000000	305	349
Frame#	Time	HEAD_ANT			R_HEAD			L_HEAD			C7			R_BACK			L_BACK			STERNUM			R_ACROMION			R_HUM_PROX			R_HUM_ANT			R_HUM_POST			R_ELBOW_LAT			R_ELBOW_MED			R_FOREARM			R_WIRST_LAT			R_WRITS_MED			R_HAND			L_ACROMION			L_HUM_PROX			L_HUM_ANT			L_HUM_POST			L_ELBOW_LAT			L_ELBOW_MED			L_FOREARM			L_WRIST_LAT			L_WIRST_MED			L_HAND			R_ILIAC			SACRUM			L_ILIAC			R_GTROCH			R_THIGH__1			R_THIGH_2			R_THIGH_3			R_THIGH_4			R_SHANK_1			R_SHANK_2			R_SHANK_3			R_SHANK_4			R_HEEL			R_FOOT_LAT			R_FOOT_MED			L_GTROCH			L_THIGH_1			L_THIGH_2			L_THIGH_3			L_THIGH_4			L_SHANK_1			L_SHANK_2			L_SHANK_3			L_SHANK_4			L_HEEL			L_FOOT_LAT			L_FOOT_MED			
		X1	Y1	Z1	X2	Y2	Z2	X3	Y3	Z3	X4	Y4	Z4	X5	Y5	Z5	X6	Y6	Z6	X7	Y7	Z7	X8	Y8	Z8	X9	Y9	Z9	X10	Y10	Z10	X11	Y11	Z11	X12	Y12	Z12	X13	Y13	Z13	X14	Y14	Z14	X15	Y15	Z15	X16	Y16	Z16	X17	Y17	Z17	X18	Y18	Z18	X19	Y19	Z19	X20	Y20	Z20	X21	Y21	Z21	X22	Y22	Z22	X23	Y23	Z23	X24	Y24	Z24	X25	Y25	Z25	X26	Y26	Z26	X27	Y27	Z27	X28	Y28	Z28	X29	Y29	Z29	X30	Y30	Z30	X31	Y31	Z31	X32	Y32	Z32	X33	Y33	Z33	X34	Y34	Z34	X35	Y35	Z35	X36	Y36	Z36	X37	Y37	Z37	X38	Y38	Z38	X39	Y39	Z39	X40	Y40	Z40	X41	Y41	Z41	X42	Y42	Z42	X43	Y43	Z43	X44	Y44	Z44	X45	Y45	Z45	X46	Y46	Z46	X47	Y47	Z47	X48	Y48	Z48	X49	Y49	Z49	X50	Y50	Z50	X51	Y51	Z51	X52	Y52	Z52	X53	Y53	Z53	X54	Y54	Z54	

306	1.22	1751.631591796875	1704.854125976562	-289.9848327636715	1692.127563476562	1646.79931640625	-217.3897094726559	1693.166015625	1660.369384765625	-363.3193359374997	1556.351928710938	1482.494018554688	-305.8254394531247	1483.525146484375	1282.590576171875	-249.0334472656247	1489.179565429688	1289.806030273438	-383.7745056152341	1740.4248046875	1322.551513671875	-303.9631347656247	1626.85595703125	1429.236206054688	-131.3044738769528	1573.051147460938	1269.112670898438	-48.09248733520479	1629.699462890625	1181.012451171875	-35.50129699707005	1508.728149414062	1188.648559570312	-44.55453872680638	1551.83837890625	1079.204956054688	-31.84117889404273	1537.296997070312	1076.573120117188	-113.2959289550779	1634.873901367188	890.9806518554688	-12.14920711517314	1675.319213867188	821.6644897460938	-44.56335830688458	1600.475219726562	804.42333984375	-18.58549880981428	1660.578369140625	734.7138671875	11.33407497406022	1644.360229492188	1441.356201171875	-471.0177917480465	1641.93994140625	1275.930541992188	-567.861633300781	1710.732788085938	1200.611938476563	-560.387023925781	1593.33837890625	1194.21484375	-600.5458984374998	1662.544677734375	1094.4541015625	-601.9496459960935	1603.777709960938	1080.697998046875	-551.3458251953123	1798.498901367188	947.6953735351564	-549.9478759765623	1829.394287109375	898.7444458007814	-488.1533203124998	1806.6435546875	863.3890380859376	-553.4105834960935	1890.94921875	831.1943969726564	-520.7448120117185	1650.020629882812	1036.383666992188	-137.7536010742185	1519.074096679688	1008.019470214844	-302.4532470703123	1632.518432617188	1029.902587890625	-485.0679931640623	1628.519775390625	887.2314453125	-121.6183624267576	1752.138305664062	627.9808959960938	-151.9017639160155	1799.728149414062	662.6206665039062	-149.2707214355467	1837.2109375	568.98583984375	-188.1278991699218	1775.774658203125	552.52197265625	-175.0509185791014	1836.527465820312	337.5277709960938	-172.3451995849609	1894.91162109375	332.6873474121094	-189.9658203124999	1913.128540039062	250.0132446289063	-208.0501708984374	1850.651977539062	238.460433959961	-193.7204284667968	1856.5947265625	36.43415069580085	-275.8404846191406	2022.9580078125	27.31191635131841	-201.4871215820312	2069.250732421875	54.46866607666022	-290.7222900390625	1587.769775390625	924.5852050781251	-485.5776062011716	1595.482666015625	633.4214477539064	-467.6834716796874	1549.758178710938	668.2927246093751	-480.7760314941405	1507.50634765625	575.8726806640626	-450.5631713867186	1568.465576171875	559.2476806640626	-443.265655517578	1397.301025390625	329.2687988281251	-429.1088867187499	1338.818725585938	343.7210693359376	-436.5538635253906	1287.617797851562	275.3844299316407	-417.3415832519531	1343.343627929688	245.8751831054688	-405.3720092773437	1147.042114257812	148.3662719726563	-344.8525695800781	1279.205322265625	23.58388137817392	-393.7196655273438	1311.70751953125	29.85874176025397	-287.6021118164062	
307	1.224	1757.503662109375	1705.370361328125	-289.3230590820309	1697.967041015625	1647.322265625	-216.9109344482418	1699.081665039062	1661.036499023438	-362.5893859863278	1562.196655273438	1482.760375976562	-305.7078857421872	1489.702026367188	1282.921875	-248.6997985839841	1495.499145507812	1290.034545898438	-383.2324523925778	1746.63232421875	1323.0634765625	-303.5621337890622	1632.860595703125	1429.338989257812	-130.7966766357419	1579.342407226562	1269.021240234375	-48.00211715698214	1636.0390625	1180.990234375	-35.31742095947239	1515.11279296875	1188.545043945312	-44.32347488403294	1557.798583984375	1079.235717773438	-31.9894752502439	1543.7265625	1076.331787109375	-113.1928405761716	1641.005249023438	890.7168579101562	-12.32610893249492	1681.480102539062	821.3873291015625	-44.80494308471661	1606.542846679688	804.340576171875	-18.75486183166486	1666.521850585938	734.50439453125	11.08611297607438	1650.529418945312	1441.805541992188	-470.6734619140622	1647.710815429688	1276.330688476563	-567.414123535156	1716.347290039062	1200.763305664063	-559.9810791015623	1598.795043945312	1194.595458984375	-599.5805053710935	1668.120483398438	1094.52490234375	-601.4846191406248	1609.462890625	1081.051391601563	-550.865539550781	1803.225952148438	946.9749755859376	-550.3526611328123	1834.048217773438	897.6613159179689	-488.6262207031248	1810.91748046875	862.6811523437501	-554.0987548828123	1894.960083007812	829.9129028320314	-521.715881347656	1656.240356445312	1036.816528320312	-137.4425201416013	1525.15087890625	1008.801940917969	-302.8193664550779	1639.827392578125	1029.851440429688	-484.9626464843748	1635.232421875	888.5143432617188	-121.0047912597654	1759.517211914062	629.6805419921875	-152.0316467285155	1807.027587890625	664.4503784179688	-150.028610229492	1844.473754882812	570.6287231445312	-189.0624237060546	1783.335571289062	554.1927490234375	-175.0371704101561	1842.117919921875	338.7462463378907	-171.8809814453124	1900.25927734375	333.1915893554688	-190.2982482910155	1917.185791015625	250.1644287109376	-208.2966308593749	1854.933349609375	239.3208160400391	-193.018325805664	1857.09814453125	36.91892623901374	-275.2540893554688	2023.894409179688	25.70768737792973	-201.7384643554688	2070.08935546875	52.1374244689942	-290.9583435058594	1595.4697265625	924.1060791015626	-484.442687988281	1603.47314453125	633.0197753906251	-467.4684143066405	1557.591430664062	667.7317504882814	-480.4932250976561	1515.702758789062	575.0640258789064	-450.6689453124999	1576.817993164062	558.7728881835939	-443.0896606445311	1403.656127929688	329.7488098144532	-429.5345458984374	1345.33740234375	344.6380920410157	-437.1040344238281	1293.34619140625	277.2114868164064	-418.3312377929687	1348.430053710938	246.8259582519532	-406.1991577148437	1151.227416992188	152.6258087158204	-345.9421691894531	1279.914672851562	24.2834014892579	-393.7515563964844	1312.101806640625	30.09815406799323	-287.8619384765625	
308	1.228	1763.321044921875	1705.926147460938	-288.6411743164059	1703.82861328125	1647.829467773438	-216.1007080078121	1704.83447265625	1661.737915039062	-362.0317687988278	1568.490966796875	1483.420166015625	-305.3034057617184	1495.597534179688	1283.348022460938	-248.3941650390622	1501.821899414062	1290.437133789062	-382.8597106933591	1752.673217773438	1323.587158203125	-302.5319213867185	1638.85498046875	1429.503051757812	-130.2186889648434	1585.6533203125	1268.98828125	-47.67198562622042	1642.488891601562	1181.06396484375	-35.22024536132786	1521.423828125	1188.415283203125	-44.19928359985325	1564.247314453125	1079.099975585938	-32.0427093505857	1550.231689453125	1076.0205078125	-113.3729553222654	1647.277099609375	890.6151733398438	-12.56754302978496	1687.55810546875	821.0553588867188	-45.07779312133771	1612.644653320312	804.2655029296875	-19.11431312561017	1672.63720703125	734.2289428710938	10.53963375091569	1656.799926757812	1442.4169921875	-470.3397827148434	1653.55810546875	1276.735595703125	-566.9429931640623	1722.28271484375	1201.36328125	-559.465393066406	1604.485595703125	1195.267578125	-599.4638061523435	1673.534423828125	1094.946044921875	-600.9301757812498	1614.919921875	1081.421875	-549.927307128906	1807.887817382812	946.2839965820314	-550.6972045898435	1838.6171875	896.6464233398439	-489.2501525878904	1815.099975585938	862.0140380859376	-554.757385253906	1899.001953125	828.6669921875001	-522.6079101562498	1662.382446289062	1037.309692382812	-137.183410644531	1531.527465820312	1009.22998046875	-303.3488159179685	1647.34130859375	1030.006713867188	-484.679504394531	1641.806396484375	889.9996948242188	-120.5506668090818	1767.136596679688	631.5374145507812	-152.539581298828	1814.58935546875	666.6768798828125	-150.7654571533202	1850.644897460938	571.860595703125	-189.5662841796874	1790.9189453125	555.911376953125	-174.9246978759764	1847.611328125	339.7411499023438	-171.6866149902343	1905.27734375	333.3791809082032	-190.8929748535155	1920.972778320312	250.3415069580079	-208.5223388671874	1858.6953125	240.1230773925782	-192.3719329833984	1857.48779296875	37.33895111083991	-274.8000183105469	2024.386596679688	24.10737609863286	-201.2483825683594	2070.6396484375	49.82391357421881	-291.1749877929688	1602.392333984375	923.6821289062501	-484.4625244140623	1611.562744140625	632.6166992187501	-467.4722595214843	1565.405639648438	667.2391357421876	-480.4043884277342	1523.893310546875	574.2902221679689	-450.8246459960936	1585.221557617188	558.2951660156251	-443.1289672851561	1410.14453125	330.1514282226564	-431.3861083984374	1351.94384765625	346.0008850097657	-438.0658874511718	1298.998046875	279.1351928710939	-418.9755249023437	1353.853149414062	247.8161163330079	-407.2537536621093	1155.65673828125	157.009246826172	-346.8692321777343	1280.635986328125	24.70623397827157	-393.89501953125	1312.508544921875	30.3035793304444	-287.9908142089844	
309	1.232	1769.15087890625	1706.63037109375	-287.8641967773434	1709.662231445312	1648.366333007812	-215.5233917236324	1710.877807617188	1662.386474609375	-361.3703918457028	1574.758911132812	1483.942626953125	-304.693206787109	1506.394287109375	1283.198852539062	-246.7992095947263	1508.2060546875	1290.734130859375	-382.3109741210935	1759.000732421875	1324.166870117188	-302.112609863281	1644.915405273438	1429.847534179688	-129.6032867431637	1592.028930664062	1269.158447265625	-47.40211868286104	1648.863037109375	1181.230834960938	-35.28975296020482	1527.909912109375	1188.500854492188	-44.00228881835911	1571.204711914062	1079.058837890625	-32.15168762207007	1556.787231445312	1076.33447265625	-113.6033706665037	1653.577026367188	890.5797119140625	-12.7233886718748	1693.74267578125	821.0484619140625	-45.20374679565411	1618.890380859375	804.3160400390625	-19.28215599060041	1678.679077148438	734.2843017578125	10.32627773284928	1662.937255859375	1443.09326171875	-469.9038085937497	1659.309448242188	1277.214721679688	-566.3868408203123	1727.982788085938	1201.745849609375	-559.043762207031	1610.20166015625	1195.691162109375	-598.935363769531	1678.793090820312	1095.352783203125	-600.4071655273435	1621.963989257812	1081.670654296875	-547.8439331054685	1812.626953125	945.7571411132814	-551.0130615234373	1842.998657226562	895.6648559570314	-490.0178833007811	1819.100341796875	861.5074462890626	-555.445861816406	1902.8701171875	827.4252929687501	-523.879211425781	1668.4228515625	1038.0634765625	-136.7724761962888	1538.975708007812	1010.041015625	-303.666076660156	1655.026123046875	1030.136108398438	-484.759582519531	1648.366333007812	891.6762084960938	-120.2114868164061	1774.836669921875	633.6367797851562	-152.4878692626952	1822.272583007812	668.5899047851562	-152.1543121337889	1858.572509765625	574.099609375	-189.6478118896483	1798.616821289062	557.7130737304688	-174.6147918701171	1852.956909179688	340.6361694335938	-171.0249481201171	1910.142333984375	333.5093078613282	-191.0961914062499	1924.66259765625	250.0122528076172	-208.7362060546874	1862.509155273438	240.9382629394532	-191.5278015136718	1857.885986328125	37.61470794677741	-274.4178466796875	2024.81396484375	22.94530296325688	-200.3184967041016	2071.090087890625	47.64818191528327	-291.3911743164062	1609.220703125	923.4489135742189	-484.7047424316404	1619.783447265625	632.3931884765626	-467.348419189453	1573.529541015625	666.6355590820314	-480.2215270996092	1532.164916992188	573.3953857421876	-450.890655517578	1593.799072265625	557.6688842773439	-443.4990844726561	1416.753295898438	330.4632568359376	-432.2469177246093	1358.583862304688	347.0157165527345	-438.9806213378906	1304.96630859375	280.7691345214845	-419.8050231933593	1359.408325195312	249.0319824218751	-407.9609374999999	1160.5673828125	161.4093170166016	-347.7344665527343	1281.47119140625	25.30860519409189	-393.7634582519531	1312.896728515625	30.5005893707276	-288.1011352539062	
